<svg width="13.037598" height="7.682495" viewBox="0 0 13.0376 7.6825" fill="none" xmlns="http://www.w3.org/2000/svg" xmlns:xlink="http://www.w3.org/1999/xlink">
	<desc>
			Created with Pixso.
	</desc>
	<defs/>
	<path id="Vector" d="M1.99 0.34L6.52 4.86L11.05 0.34C11.5 -0.12 12.24 -0.12 12.69 0.34C13.15 0.79 13.15 1.53 12.69 1.98L7.34 7.34C6.88 7.79 6.15 7.79 5.69 7.34L0.34 1.98C-0.12 1.53 -0.12 0.79 0.34 0.34C0.79 -0.11 1.54 -0.12 1.99 0.34Z" fill="#FFFFFF" fill-opacity="1.000000" fill-rule="nonzero"/>
	<path id="Vector" d="M7.65 3.73L11.05 0.34C11.5 -0.12 12.24 -0.12 12.69 0.34C13.15 0.79 13.15 1.53 12.69 1.98L7.34 7.34C6.88 7.79 6.15 7.79 5.69 7.34L0.34 1.98C-0.12 1.53 -0.12 0.79 0.34 0.34C0.79 -0.11 1.54 -0.12 1.99 0.34L5.39 3.73L6.52 4.86L7.65 3.73Z" fill="#FFFFFF" fill-opacity="1.000000" fill-rule="evenodd"/>
</svg>
